#N canvas 71 272 579 631 12;
#X obj 101 536 dac~ 1 2 3 4 5 6;
#X obj 75 412 adc~ 1 2 3 4 5 6;
#X obj 79 73 route K1 K2 K3 K4 K5 K6;
#X obj 237 117 route S1 S2 S3 S4 S5 S6;
#X text 257 71 knobs;
#X text 412 115 buttons;
#X msg 97 344 display this text will print;
#X msg 75 300 L1 \$1 \$2 \$3;
#X obj 75 271 pack f f f;
#X obj 90 213 t b f;
#X obj 132 214 t b f;
#X obj 75 134 vsl 15 50 0 1 0 0 empty empty empty 0 -9 0 10 #fc0400 #000000 #000000 0 1;
#X obj 90 134 vsl 15 50 0 1 0 0 empty empty empty 0 -9 0 10 #00fc04 #000000 #000000 0 1;
#X obj 105 134 vsl 15 50 0 1 0 0 empty empty empty 0 -9 0 10 #0400fc #000000 #000000 0 1;
#X obj 79 36 r fromRack;
#X obj 75 378 print toRack;
#X text 306 343 to the display;
#X text 227 536 sending audio to VCV Prototype module;
#X text 164 36 receiving control data from VCV PureData module;
#X text 172 379 sending control data from VCV PureData module;
#X text 201 412 receiving audio from VCV PureData module;
#X obj 185 174 lfo 0.25;
#X obj 185 198 / 127;
#X obj 231 315 loadbang;
#X obj 284 184;
#X obj 188 252 s toRack;
#X connect 2 6 3 0;
#X connect 6 0 15 0;
#X connect 7 0 25 0;
#X connect 8 0 7 0;
#X connect 9 0 8 0;
#X connect 9 1 8 1;
#X connect 10 0 8 0;
#X connect 10 1 8 2;
#X connect 11 0 8 0;
#X connect 12 0 9 0;
#X connect 13 0 10 0;
#X connect 14 0 2 0;
#X connect 21 0 22 0;
#X connect 22 0 11 0;
#X connect 22 0 12 0;
#X connect 22 0 13 0;
#X connect 23 0 6 0;
