#N canvas 602 163 452 542 12;
#X obj 240 91 route K1;
#X obj 110 359 osc~;
#X msg 215 425 display Freq: \$1 Hz;
#X obj 176 63 adc~ 1;
#X obj 240 168 sig~;
#X obj 214 269 loadbang;
#X obj 214 303 tgl 17 0 empty empty empty 17 7 0 10 #dfdfdf #000000 #000000 0 1;
#X obj 214 330 metro 50;
#X obj 214 367 snapshot~;
#X obj 214 393 change;
#X obj 176 146 +~;
#X obj 240 117 * 10;
#X obj 240 142 - 5;
#X obj 110 243 *~ 261.626;
#X obj 110 175 sig~ 2;
#X obj 111 469 dac~ 1;
#X obj 110 404 *~ 5;
#X obj 240 63 r fromRack;
#X obj 215 477 print toRack;
#X obj 110 209 pow~, f 10;
#X text 96 35 FM with CV signal from IN1, f 17;
#X connect 0 0 11 0;
#X connect 1 0 16 0;
#X connect 2 0 18 0;
#X connect 3 0 10 0;
#X connect 4 0 10 1;
#X connect 5 0 6 0;
#X connect 6 0 7 0;
#X connect 7 0 8 0;
#X connect 8 0 9 0;
#X connect 9 0 2 0;
#X connect 10 0 19 1;
#X connect 11 0 12 0;
#X connect 12 0 4 0;
#X connect 13 0 1 0;
#X connect 13 0 8 0;
#X connect 14 0 19 0;
#X connect 16 0 15 0;
#X connect 17 0 0 0;
#X connect 19 0 13 0;
